<svg width="729" height="751" viewBox="0 0 729 751" fill="none" xmlns="http://www.w3.org/2000/svg">
<path d="M615.313 374.998C573.826 367.888 583.764 307.486 622.567 279.004C643.611 263.557 652.646 274.21 686.611 265.67C716.135 258.247 732.038 295.794 727.498 310.784C721.328 331.157 722.775 357.704 700.858 362.721C668.811 370.058 667.172 383.886 615.313 374.998Z" fill="#F9FAFB"/>
<path d="M-22.7777 626.995L27.333 587.622C178.122 486.004 277.69 420.055 447.462 371.196C549.054 341.959 519.868 458.587 496.686 478.841C473.505 499.095 440.995 518.047 406.001 544.112C286.25 633.309 208.129 675.11 69.4466 736.754C19.0168 759.169 -11.1011 750.544 -39.5681 736.467C-77.5241 717.698 -67.8774 662.432 -22.7777 626.995Z" fill="#F9FAFB"/>
<path d="M17.9468 260.475L68.0575 221.101C218.846 119.484 318.414 53.5345 488.187 4.67575C589.778 -24.5611 560.592 92.0663 537.411 112.321C514.229 132.575 481.719 151.526 446.726 177.591C326.974 266.789 248.853 308.589 110.171 370.233C59.7413 392.649 29.6234 384.023 1.1564 369.946C-36.7996 351.177 -27.1529 295.911 17.9468 260.475Z" fill="#F9FAFB"/>
</svg>
